# xmcd CD database file
#
# Track frame offsets:
#	150
#	11995
#	23123
#	35438
#	47272
#	58208
#	70559
#	81052
#	93209
#	107174
#	117797
#	129450
#	143493
#	153146
#	165313
#	178841
#	191239
#	205322
#	219029
#	232933
#	243836
#	256173
#	269858
#	284403
#	299420
#	312560
#	325524
#	340674
#
# Disc length: 4717 seconds
#
# Revision: 1
# Processed by: cddbd v1.5.2PL0 Copyright (c) Steve Scherf et al.
# Submitted via: CDex 1.51
#
DISCID=86126b1c
DTITLE=George Jones - Ultimate Mid-Period (1960-1983)
DYEAR=1900
DGENRE=Country
TTITLE0=1960-The Window Up Above
TTITLE1=1961-Tender Years
TTITLE2=1962-A Girl I Used to Know
TTITLE3=1962-She Thinks I Still Care
TTITLE4=1962-Mansion On The Hill
TTITLE5=1963-You Comb Her Hair
TTITLE6=1967-Walk Through This World With Me
TTITLE7=1968-She's Mine
TTITLE8=1970-A Good Year For the Roses
TTITLE9=1971-Take Me (With Tammy Wynette)
TTITLE10=1972-A Picture of Me (Without you)
TTITLE11=1972-Loving you Could Never Be Better
TTITLE12=1972-We Can Make it
TTITLE13=1973-Once You've Had the Best
TTITLE14=1973-We're Gonna Hold on (With Tammy Wynette)
TTITLE15=1974-The Door
TTITLE16=1974-The Grand Tour
TTITLE17=1975-These Days (I Barely Get By)
TTITLE18=1976-Golden Ring
TTITLE19=1976-Near you (With Tammy Wynette)
TTITLE20=1980-Two Story House (With Tammy Wynette)
TTITLE21=1980-I'm Not Ready Yet
TTITLE22=1981-If Drinkin' Don't Kill Me (Her Memory Will)
TTITLE23=1980-He Stopped Loving Her Today
TTITLE24=1981-Same Old Me
TTITLE25=1981-Still Doin' Time
TTITLE26=1983-I Always Get Lucky With you
TTITLE27=1983-Tennessee Whiskey
EXTD=
EXTT0=
EXTT1=
EXTT2=
EXTT3=
EXTT4=
EXTT5=
EXTT6=
EXTT7=
EXTT8=
EXTT9=
EXTT10=
EXTT11=
EXTT12=
EXTT13=
EXTT14=
EXTT15=
EXTT16=
EXTT17=
EXTT18=
EXTT19=
EXTT20=
EXTT21=
EXTT22=
EXTT23=
EXTT24=
EXTT25=
EXTT26=
EXTT27=
PLAYORDER=
